<?xml version="1.0" encoding="UTF-8"?>
<!DOCTYPE svg PUBLIC "-//W3C//DTD SVG 1.1//EN" "http://www.w3.org/Graphics/SVG/1.1/DTD/svg11.dtd">
<svg xmlns="http://www.w3.org/2000/svg" version="1.1" width="512px" height="512px" style="shape-rendering:geometricPrecision; text-rendering:geometricPrecision; image-rendering:optimizeQuality; fill-rule:evenodd; clip-rule:evenodd" xmlns:xlink="http://www.w3.org/1999/xlink">
<g><path style="opacity:0.95" fill="#010201" d="M 345.5,27.5 C 381.878,23.931 407.711,38.5976 423,71.5C 429.442,90.0919 428.776,108.425 421,126.5C 414.775,141.284 408.275,155.951 401.5,170.5C 441.027,177.524 462.027,201.024 464.5,241C 463.246,275.243 446.413,297.743 414,308.5C 415.281,346.11 398.114,370.943 362.5,383C 364.314,419.192 348.314,443.859 314.5,457C 280.238,465.362 253.072,455.195 233,426.5C 231,422.5 229,418.5 227,414.5C 204.224,438.291 179.391,459.457 152.5,478C 116.607,491.156 87.1069,482.656 64,452.5C 46.5396,420.733 49.7063,391.233 73.5,364C 171.667,285.534 244.5,188.034 292,71.5C 302.251,47.3991 320.084,32.7324 345.5,27.5 Z"/></g>
<g><path style="opacity:1" fill="#49975a" d="M 397.5,50.5 C 391.297,65.2672 384.797,79.9339 378,94.5C 377.329,95.2524 376.496,95.5858 375.5,95.5C 373.368,92.9629 371.201,92.9629 369,95.5C 363.055,110 356.722,124.333 350,138.5C 349.123,140.674 349.623,142.341 351.5,143.5C 345.234,155.755 338.568,167.755 331.5,179.5C 330.504,179.414 329.671,179.748 329,180.5C 324.408,189.355 319.575,198.022 314.5,206.5C 277.589,258.297 236.256,306.797 190.5,352C 170.051,371.456 148.717,389.789 126.5,407C 122.921,408.706 119.421,410.539 116,412.5C 115.617,411.944 115.117,411.611 114.5,411.5C 112.989,409.559 110.989,409.059 108.5,410C 106.297,412.372 103.963,414.539 101.5,416.5C 92.9477,418.108 84.6144,417.775 76.5,415.5C 79.0697,409.357 82.403,403.69 86.5,398.5C 85.8568,395.025 83.8568,393.859 80.5,395C 72.215,404.064 66.3816,414.564 63,426.5C 58.6396,402.248 65.8063,382.082 84.5,366C 181.504,287.514 253.337,190.348 300,74.5C 308.136,55.0116 322.303,42.8449 342.5,38C 336.262,43.3343 331.096,49.5009 327,56.5C 325.523,60.9978 327.023,63.1645 331.5,63C 337.382,54.5406 344.382,47.2073 352.5,41C 360.461,35.8219 368.794,35.1552 377.5,39C 379.841,44.5462 380.841,50.3795 380.5,56.5C 380.661,61.1546 379.994,65.6546 378.5,70C 379.687,74.7552 382.187,75.5886 386,72.5C 388.521,62.9361 389.187,53.2694 388,43.5C 391.501,45.4884 394.668,47.8217 397.5,50.5 Z"/></g>
<g><path style="opacity:1" fill="#398046" d="M 397.5,50.5 C 418.695,69.9548 424.195,93.2881 414,120.5C 407.216,137.401 399.883,154.068 392,170.5C 356.691,174.804 334.691,194.137 326,228.5C 325.5,235.158 325.334,241.825 325.5,248.5C 297.758,256.745 280.924,275.078 275,303.5C 274.667,309.833 274.333,316.167 274,322.5C 250.726,330.108 235.059,345.441 227,368.5C 200.869,395.303 173.536,420.637 145,444.5C 144.167,449 146,450.833 150.5,450C 175.547,429.459 199.547,407.626 222.5,384.5C 223.599,391.485 224.099,398.485 224,405.5C 203.495,425.485 182.328,444.652 160.5,463C 142.996,476.015 123.996,479.015 103.5,472C 114.676,470.158 124.843,465.991 134,459.5C 134.833,455 133,453.167 128.5,454C 116.016,462.204 102.349,465.538 87.5,464C 84.0607,461.861 80.894,459.361 78,456.5C 77.0181,455.241 76.6848,453.908 77,452.5C 89.3333,440.167 101.667,427.833 114,415.5C 114.49,414.207 114.657,412.873 114.5,411.5C 115.117,411.611 115.617,411.944 116,412.5C 119.421,410.539 122.921,408.706 126.5,407C 148.717,389.789 170.051,371.456 190.5,352C 236.256,306.797 277.589,258.297 314.5,206.5C 303.342,226.15 291.175,245.15 278,263.5C 276.5,268.667 278.333,270.5 283.5,269C 302.628,241.924 320.128,213.758 336,184.5C 336.5,181.162 335,179.495 331.5,179.5C 338.568,167.755 345.234,155.755 351.5,143.5C 353.611,144.968 355.444,144.635 357,142.5C 363.608,128.284 369.941,113.951 376,99.5C 376.579,98.0715 376.412,96.7382 375.5,95.5C 376.496,95.5858 377.329,95.2524 378,94.5C 384.797,79.9339 391.297,65.2672 397.5,50.5 Z"/></g>
<g><path style="opacity:1" fill="#020603" d="M 350.5,72.5 C 353.864,71.8728 355.864,73.2061 356.5,76.5C 345.379,106.026 332.046,134.526 316.5,162C 312,162.833 310.167,161 311,156.5C 325.53,129.108 338.697,101.108 350.5,72.5 Z"/></g>
<g><path style="opacity:1" fill="#020603" d="M 316.5,77.5 C 319.885,76.7896 322.219,77.9563 323.5,81C 292.265,159.362 249.265,230.196 194.5,293.5C 189.203,296.389 187.036,294.723 188,288.5C 242.473,225.609 285.306,155.276 316.5,77.5 Z"/></g>
<g><path style="opacity:1" fill="#030703" d="M 375.5,95.5 C 376.412,96.7382 376.579,98.0715 376,99.5C 369.941,113.951 363.608,128.284 357,142.5C 355.444,144.635 353.611,144.968 351.5,143.5C 349.623,142.341 349.123,140.674 350,138.5C 356.722,124.333 363.055,110 369,95.5C 371.201,92.9629 373.368,92.9629 375.5,95.5 Z"/></g>
<g><path style="opacity:1" fill="#020602" d="M 394.5,107.5 C 398.976,107.822 400.476,110.156 399,114.5C 392.274,130.285 385.274,145.951 378,161.5C 372.812,162.98 370.812,160.98 372,155.5C 378.722,141.333 385.055,127 391,112.5C 391.697,110.416 392.864,108.749 394.5,107.5 Z"/></g>
<g><path style="opacity:1" fill="#020502" d="M 331.5,179.5 C 335,179.495 336.5,181.162 336,184.5C 320.128,213.758 302.628,241.924 283.5,269C 278.333,270.5 276.5,268.667 278,263.5C 291.175,245.15 303.342,226.15 314.5,206.5C 319.575,198.022 324.408,189.355 329,180.5C 329.671,179.748 330.504,179.414 331.5,179.5 Z"/></g>
<g><path style="opacity:1" fill="#315934" d="M 411.5,296.5 C 415.147,295.343 418.48,293.677 421.5,291.5C 441.656,280.05 451.99,262.55 452.5,239C 449.665,209.166 433.665,190.833 404.5,184C 373.812,180.921 352.312,193.421 340,221.5C 338.852,225.453 338.018,229.453 337.5,233.5C 336.57,237.4 336.237,241.4 336.5,245.5C 341.363,245.181 346.03,245.514 350.5,246.5C 344.833,246.5 339.167,246.5 333.5,246.5C 332.898,211.876 349.231,189.71 382.5,180C 414.64,176.19 437.807,188.69 452,217.5C 461.637,247.585 454.137,272.418 429.5,292C 423.842,295.329 417.842,297.829 411.5,299.5C 411.5,298.5 411.5,297.5 411.5,296.5 Z"/></g>
<g><path style="opacity:1" fill="#b0e79e" d="M 421.5,291.5 C 420.155,286.818 418.822,282.151 417.5,277.5C 417.982,276.584 418.315,275.584 418.5,274.5C 417.351,272.203 416.185,269.87 415,267.5C 413.211,265.771 411.044,265.104 408.5,265.5C 397.009,250.576 382.009,240.91 363.5,236.5C 355.135,234.087 346.469,233.087 337.5,233.5C 338.018,229.453 338.852,225.453 340,221.5C 352.312,193.421 373.812,180.921 404.5,184C 433.665,190.833 449.665,209.166 452.5,239C 451.99,262.55 441.656,280.05 421.5,291.5 Z"/></g>
<g><path style="opacity:1" fill="#070a06" d="M 392.5,193.5 C 394.766,193.141 396.599,193.808 398,195.5C 398.667,201.167 398.667,206.833 398,212.5C 395.408,213.982 393.075,213.648 391,211.5C 390.333,206.167 390.333,200.833 391,195.5C 391.717,194.956 392.217,194.289 392.5,193.5 Z"/></g>
<g><path style="opacity:1" fill="#0f120d" d="M 373.5,202.5 C 375.903,202.393 377.736,203.393 379,205.5C 379.748,207.332 380.748,208.999 382,210.5C 383.123,214.055 381.789,216.055 378,216.5C 374.439,214.231 371.939,211.064 370.5,207C 370.957,205.06 371.957,203.56 373.5,202.5 Z"/></g>
<g><path style="opacity:1" fill="#0b0e0a" d="M 412.5,202.5 C 415.864,201.873 417.864,203.206 418.5,206.5C 417.2,210.782 414.7,214.116 411,216.5C 408.709,215.876 407.543,214.376 407.5,212C 408.527,208.479 410.194,205.313 412.5,202.5 Z"/></g>
<g><path style="opacity:1" fill="#020503" d="M 279.5,211.5 C 283.976,211.822 285.476,214.156 284,218.5C 258.942,257.904 230.442,294.738 198.5,329C 194,329.833 192.167,328 193,323.5C 224.727,288.289 253.56,250.956 279.5,211.5 Z"/></g>
<g><path style="opacity:1" fill="#0c0f0a" d="M 355.5,214.5 C 360.715,216.441 365.715,218.941 370.5,222C 372.286,225.427 371.452,227.927 368,229.5C 363.843,227.35 359.677,225.184 355.5,223C 351.605,220.178 351.605,217.345 355.5,214.5 Z"/></g>
<g><path style="opacity:1" fill="#0a0d09" d="M 429.5,215.5 C 435.359,214.074 437.359,216.074 435.5,221.5C 430.675,225.417 425.342,227.917 419.5,229C 417.675,227.534 417.175,225.701 418,223.5C 421.812,220.688 425.646,218.021 429.5,215.5 Z"/></g>
<g><path style="opacity:1" fill="#89c072" d="M 337.5,233.5 C 346.469,233.087 355.135,234.087 363.5,236.5C 382.009,240.91 397.009,250.576 408.5,265.5C 406.965,271.431 408.965,275.765 414.5,278.5C 415.584,278.315 416.584,277.982 417.5,277.5C 418.822,282.151 420.155,286.818 421.5,291.5C 418.48,293.677 415.147,295.343 411.5,296.5C 403.585,271.42 386.918,255.253 361.5,248C 357.886,247.064 354.22,246.564 350.5,246.5C 346.03,245.514 341.363,245.181 336.5,245.5C 336.237,241.4 336.57,237.4 337.5,233.5 Z"/></g>
<g><path style="opacity:1" fill="#0b0f09" d="M 363.5,236.5 C 365.584,238.757 365.917,241.257 364.5,244C 360.245,244.796 356.079,244.629 352,243.5C 351.104,240.975 351.604,238.808 353.5,237C 356.817,236.502 360.15,236.335 363.5,236.5 Z"/></g>
<g><path style="opacity:1" fill="#070a06" d="M 425.5,236.5 C 429.24,236.241 432.906,236.574 436.5,237.5C 437.641,239.421 437.808,241.421 437,243.5C 433.256,244.626 429.423,244.793 425.5,244C 422.914,241.506 422.914,239.006 425.5,236.5 Z"/></g>
<g><path style="opacity:1" fill="#070a06" d="M 419.5,252.5 C 425.515,253.993 431.015,256.66 436,260.5C 436.833,265 435,266.833 430.5,266C 426.5,263.667 422.5,261.333 418.5,259C 417.144,256.586 417.478,254.419 419.5,252.5 Z"/></g>
<g><path style="opacity:1" fill="#315934" d="M 359.5,370.5 C 364.087,369.979 368.087,368.312 371.5,365.5C 394.336,352.159 404.169,332.159 401,305.5C 391.683,271.907 369.516,256.074 334.5,258C 308.533,263.8 292.866,279.633 287.5,305.5C 286.513,310.305 286.179,315.305 286.5,320.5C 285.167,320.5 283.833,320.5 282.5,320.5C 281.996,288.526 296.662,267.026 326.5,256C 363.021,248.843 388.521,262.343 403,296.5C 409.706,324.717 401.873,347.884 379.5,366C 373.637,369.932 367.304,372.765 360.5,374.5C 360.567,373.041 360.234,371.708 359.5,370.5 Z"/></g>
<g><path style="opacity:1" fill="#afe79e" d="M 371.5,365.5 C 369.591,361.334 367.925,357.001 366.5,352.5C 367.561,348.552 366.728,344.886 364,341.5C 362.102,339.316 359.936,338.983 357.5,340.5C 346.53,325.34 331.863,315.674 313.5,311.5C 305.146,309.003 296.479,308.003 287.5,308.5C 287.5,307.5 287.5,306.5 287.5,305.5C 292.866,279.633 308.533,263.8 334.5,258C 369.516,256.074 391.683,271.907 401,305.5C 404.169,332.159 394.336,352.159 371.5,365.5 Z"/></g>
<g><path style="opacity:1" fill="#050704" d="M 408.5,265.5 C 411.044,265.104 413.211,265.771 415,267.5C 416.185,269.87 417.351,272.203 418.5,274.5C 418.315,275.584 417.982,276.584 417.5,277.5C 416.584,277.982 415.584,278.315 414.5,278.5C 408.965,275.765 406.965,271.431 408.5,265.5 Z"/></g>
<g><path style="opacity:1" fill="#0d110c" d="M 342.5,267.5 C 344.39,267.297 345.89,267.963 347,269.5C 347.667,275.167 347.667,280.833 347,286.5C 344.16,289.371 341.826,289.037 340,285.5C 339.333,280.5 339.333,275.5 340,270.5C 341.045,269.627 341.878,268.627 342.5,267.5 Z"/></g>
<g><path style="opacity:1" fill="#080b07" d="M 321.5,277.5 C 325.182,276.725 327.682,278.059 329,281.5C 333.243,288.231 331.576,290.898 324,289.5C 320.973,285.839 320.14,281.839 321.5,277.5 Z"/></g>
<g><path style="opacity:1" fill="#080a07" d="M 360.5,277.5 C 363.885,276.79 366.219,277.956 367.5,281C 366.47,283.56 365.303,286.06 364,288.5C 362.192,290.396 360.025,290.896 357.5,290C 356.919,289.107 356.585,288.107 356.5,287C 357.443,283.621 358.776,280.454 360.5,277.5 Z"/></g>
<g><path style="opacity:1" fill="#080b07" d="M 304.5,289.5 C 310.783,291.058 316.283,294.058 321,298.5C 321.165,302.977 318.998,304.477 314.5,303C 311.661,301.08 308.661,299.413 305.5,298C 301.848,295.542 301.514,292.709 304.5,289.5 Z"/></g>
<g><path style="opacity:1" fill="#070a06" d="M 379.5,289.5 C 384,289.164 385.833,291.164 385,295.5C 380.179,299.833 374.679,302.333 368.5,303C 366.38,301.477 366.047,299.644 367.5,297.5C 371.565,294.81 375.565,292.143 379.5,289.5 Z"/></g>
<g><path style="opacity:1" fill="#89c072" d="M 287.5,305.5 C 287.5,306.5 287.5,307.5 287.5,308.5C 296.479,308.003 305.146,309.003 313.5,311.5C 331.863,315.674 346.53,325.34 357.5,340.5C 356.536,344.961 357.703,348.961 361,352.5C 362.828,353.752 364.661,353.752 366.5,352.5C 367.925,357.001 369.591,361.334 371.5,365.5C 368.087,368.312 364.087,369.979 359.5,370.5C 350.748,342.922 332.082,326.422 303.5,321C 297.843,320.501 292.176,320.334 286.5,320.5C 286.179,315.305 286.513,310.305 287.5,305.5 Z"/></g>
<g><path style="opacity:1" fill="#040503" d="M 313.5,311.5 C 315.165,314.316 314.832,316.816 312.5,319C 309.167,319.667 305.833,319.667 302.5,319C 299.833,316.667 299.833,314.333 302.5,312C 306.152,311.501 309.818,311.335 313.5,311.5 Z"/></g>
<g><path style="opacity:1" fill="#0d110c" d="M 374.5,311.5 C 378.182,311.335 381.848,311.501 385.5,312C 388.172,314.679 387.838,317.012 384.5,319C 381.167,319.667 377.833,319.667 374.5,319C 371.901,316.421 371.901,313.921 374.5,311.5 Z"/></g>
<g><path style="opacity:1" fill="#020503" d="M 162.5,316.5 C 167,316.164 168.833,318.164 168,322.5C 146.032,345.142 122.865,366.309 98.5,386C 94,386.833 92.1667,385 93,380.5C 117.564,360.773 140.73,339.44 162.5,316.5 Z"/></g>
<g><path style="opacity:1" fill="#0c0f0a" d="M 369.5,326.5 C 374.715,328.441 379.715,330.941 384.5,334C 386.286,337.427 385.452,339.927 382,341.5C 375.98,339.087 370.813,335.587 366.5,331C 366.957,329.06 367.957,327.56 369.5,326.5 Z"/></g>
<g><path style="opacity:1" fill="#325a35" d="M 281.5,328.5 C 309.906,325.34 331.74,335.673 347,359.5C 361.972,392.545 355.139,420.045 326.5,442C 291.73,459.583 262.896,452.75 240,421.5C 224.1,388.321 230.6,360.488 259.5,338C 266.554,333.968 273.887,330.801 281.5,328.5 Z"/></g>
<g><path style="opacity:1" fill="#afe79d" d="M 281.5,332.5 C 316.802,329.55 339.635,344.884 350,378.5C 353.522,413.327 338.689,435.827 305.5,446C 270.883,450.701 248.05,436.534 237,403.5C 232.484,367.548 247.317,343.881 281.5,332.5 Z"/></g>
<g><path style="opacity:1" fill="#020502" d="M 218.5,337.5 C 224.375,337.636 225.875,340.303 223,345.5C 209.863,359.638 196.363,373.471 182.5,387C 178,387.833 176.167,386 177,381.5C 191.77,367.568 205.603,352.901 218.5,337.5 Z"/></g>
<g><path style="opacity:1" fill="#0b0f09" d="M 366.5,352.5 C 364.661,353.752 362.828,353.752 361,352.5C 357.703,348.961 356.536,344.961 357.5,340.5C 359.936,338.983 362.102,339.316 364,341.5C 366.728,344.886 367.561,348.552 366.5,352.5 Z"/></g>
<g><path style="opacity:1" fill="#0d100b" d="M 290.5,342.5 C 293.044,342.104 295.211,342.771 297,344.5C 297.667,349.833 297.667,355.167 297,360.5C 294.925,362.648 292.592,362.982 290,361.5C 289.21,355.085 289.376,348.752 290.5,342.5 Z"/></g>
<g><path style="opacity:1" fill="#0c0f0b" d="M 271.5,351.5 C 272.873,351.343 274.207,351.51 275.5,352C 277.407,355.065 279.074,358.232 280.5,361.5C 279.857,364.975 277.857,366.141 274.5,365C 271.4,361.657 269.9,357.824 270,353.5C 270.717,352.956 271.217,352.289 271.5,351.5 Z"/></g>
<g><path style="opacity:1" fill="#0c0f0a" d="M 310.5,351.5 C 313.864,350.873 315.864,352.206 316.5,355.5C 315.611,358.279 314.444,360.945 313,363.5C 309.507,366.502 307.007,365.835 305.5,361.5C 306.65,357.866 308.317,354.533 310.5,351.5 Z"/></g>
<g><path style="opacity:1" fill="#0a0d09" d="M 252.5,364.5 C 259.118,365.392 264.952,368.058 270,372.5C 270.833,377 269,378.833 264.5,378C 260.5,375.667 256.5,373.333 252.5,371C 251.232,368.837 251.232,366.67 252.5,364.5 Z"/></g>
<g><path style="opacity:1" fill="#080a07" d="M 328.5,364.5 C 333.675,363.507 335.509,365.507 334,370.5C 329.916,373.126 325.75,375.626 321.5,378C 320.101,378.595 318.768,378.428 317.5,377.5C 316.359,375.579 316.192,373.579 317,371.5C 321.147,369.518 324.98,367.184 328.5,364.5 Z"/></g>
<g><path style="opacity:1" fill="#050705" d="M 251.5,386.5 C 255.182,386.335 258.848,386.501 262.5,387C 265.167,389 265.167,391 262.5,393C 258.459,393.827 254.459,393.66 250.5,392.5C 249.15,390.217 249.483,388.217 251.5,386.5 Z"/></g>
<g><path style="opacity:1" fill="#0a0d09" d="M 324.5,385.5 C 327.85,385.335 331.183,385.502 334.5,386C 337.167,388.333 337.167,390.667 334.5,393C 330.833,393.667 327.167,393.667 323.5,393C 322.046,390.216 322.379,387.716 324.5,385.5 Z"/></g>
<g><path style="opacity:1" fill="#020502" d="M 157.5,398.5 C 162.709,397.705 164.709,399.705 163.5,404.5C 152.208,415.138 140.541,425.305 128.5,435C 123.092,437.267 120.925,435.433 122,429.5C 134.322,419.674 146.156,409.341 157.5,398.5 Z"/></g>
<g><path style="opacity:1" fill="#080b07" d="M 264.5,401.5 C 269,401.164 270.833,403.164 270,407.5C 265.916,410.126 261.75,412.626 257.5,415C 253,415.833 251.167,414 252,409.5C 256.316,406.934 260.483,404.267 264.5,401.5 Z"/></g>
<g><path style="opacity:1" fill="#070906" d="M 317.5,401.5 C 323.701,402.683 329.201,405.35 334,409.5C 335.5,414.667 333.667,416.5 328.5,415C 324.833,412.833 321.167,410.667 317.5,408.5C 316.286,406.141 316.286,403.808 317.5,401.5 Z"/></g>
<g><path style="opacity:1" fill="#0b0e0a" d="M 274.5,414.5 C 277.864,413.873 279.864,415.206 280.5,418.5C 279.558,422.74 277.391,426.073 274,428.5C 271.5,428 270,426.5 269.5,424C 270.79,420.585 272.456,417.418 274.5,414.5 Z"/></g>
<g><path style="opacity:1" fill="#050704" d="M 307.5,414.5 C 312.968,415.138 315.968,418.304 316.5,424C 315.862,427.293 313.862,428.293 310.5,427C 308.319,424.306 306.652,421.306 305.5,418C 305.978,416.697 306.645,415.531 307.5,414.5 Z"/></g>
<g><path style="opacity:1" fill="#387e44" d="M 76.5,415.5 C 84.6144,417.775 92.9477,418.108 101.5,416.5C 91.8543,426.812 81.8543,436.812 71.5,446.5C 68.6064,435.604 70.2731,425.27 76.5,415.5 Z"/></g>
<g><path style="opacity:1" fill="#0e110d" d="M 291.5,416.5 C 293.903,416.393 295.736,417.393 297,419.5C 297.667,424.833 297.667,430.167 297,435.5C 295.135,437.673 292.969,438.007 290.5,436.5C 289.336,430.528 289.17,424.528 290,418.5C 290.717,417.956 291.217,417.289 291.5,416.5 Z"/></g>
</svg>
